<svg id="icon" xmlns="http://www.w3.org/2000/svg" viewBox="0 0 48 48"  xml:space="preserve">
	<g>
		<path fill="currentColor" d="M46.7233 22.8927c-1.3186-1.8823-3.4786-3.007-5.7788-3.007-1.452 0-2.8487.4417-4.0403 1.2754-1.5419 1.0808-2.571 2.6973-2.8982 4.551-.3273 1.8551.0878 3.7264 1.1686 5.2682 1.3172 1.8824 3.4779 3.0056 5.7782 3.0056 1.4512 0 2.8472-.4409 4.0389-1.2746 1.5433-1.08 2.5724-2.6965 2.8996-4.5518C48.2178 26.3051 47.8034 24.4346 46.7233 22.8927zM43.7275 30.9043c-.8464.5923-1.8154.8769-2.7747.8769-1.5272 0-3.03-.7208-3.9719-2.0664-1.5356-2.1915-1.0018-5.2118 1.1888-6.7466.8456-.5923 1.8146-.8769 2.7747-.8769 1.5272 0 3.03.72 3.9718 2.0665C46.4505 26.3483 45.9189 29.3701 43.7275 30.9043zM31.6261 30.005l-.3335-.5596c-.5079-.8512-1.0891-3.2582-1.0451-4.8537.0418-1.5161.6112-3.8471 3.0837-6.3428.5108-.5142 2.5305-2.1936 7.0928-2.1936.2469 0 .4981.0049.7569.0146l.104.0036.1046-.0049c1.2851-.0718 2.3854-.6069 3.1822-1.5482.9859-1.1637 1.221-2.6359 1.1114-3.6259-.1912-1.7296-1.537-3.8093-4.7003-3.981-.1347-.0077-.2805-.0167-.4368-.0272-.5498-.0349-1.2342-.0795-2.0393-.0795-5.1894 0-9.7432 1.9424-13.9217 5.9394-1.597 1.5273-5.5082 7.0355-6.1089 7.8852-.2735.3418-2.5089 3.0922-5.6401 5.6212l-.0537.0432-.0509.0474-8.855 8.1246L0 38.0242l5.2536.2707c.5373.0287.7577.1913 1.3751.7019.8269.6831 2.075 1.7143 4.3284 1.7143 2.257 0 3.5045-1.0361 4.3298-1.7219.616-.5121.8469-.7033 1.5097-.7033.6628 0 .8931.1913 1.5091.7026.8246.6865 2.0722 1.7227 4.3292 1.7227 2.2556 0 3.5031-1.0361 4.3284-1.7219.6168-.5121.8477-.7033 1.5112-.7033.6663 0 .8979.1913 1.5174.7033.7102.5874 1.6822 1.3918 3.305 1.6402l3.6608.5638-1.2503-3.4871C34.9255 35.5251 33.2482 32.7183 31.6261 30.005zM28.4747 36.0797c-2.9205 0-2.9205 2.4259-5.8397 2.4259-2.9198 0-2.9198-2.4259-5.8382-2.4259-2.9192 0-2.9192 2.4259-5.8397 2.4259-2.8312 0-2.9246-2.2751-5.5906-2.4126l8.8557-8.1246c3.5854-2.8968 6.0203-6.0154 6.0203-6.0154s4.341-6.1543 5.8669-7.6125c4.8559-4.6451 9.4132-5.3282 12.3972-5.3282.9649 0 1.7644.0712 2.3568.1033 1.8307.0998 2.527 1.1121 2.6274 2.0212.1004.9105-.4046 2.6288-2.2242 2.7293-.2882-.0112-.5686-.0168-.8427-.0168-4.8727 0-7.5281 1.7073-8.659 2.8473-3.0077 3.0349-3.6712 5.9959-3.7222 7.8336-.0544 1.95.6126 4.7994 1.3556 6.0455 1.6808 2.8159 3.4738 5.756 4.2336 7.8741C31.3792 38.1037 31.144 36.0797 28.4747 36.0797z" />
	</g>
</svg>
